<svg width="21" height="19" viewBox="0 0 21 19" fill="none" xmlns="http://www.w3.org/2000/svg">
<mask id="mask0_82_1343" style="mask-type:alpha" maskUnits="userSpaceOnUse" x="0" y="0" width="21" height="19">
<path d="M0.516968 0H20.2265V18.383H0.516968V0Z" fill="black"/>
</mask>
<g mask="url(#mask0_82_1343)">
<path fill-rule="evenodd" clip-rule="evenodd" d="M3.59569 0.574005H10.9868C11.497 0.574005 11.9325 0.742263 12.2933 1.07878C12.6541 1.41529 12.8345 1.82151 12.8345 2.29741V6.31869H17.1459C17.6562 6.31869 18.0917 6.48695 18.4525 6.82346C18.8133 7.15998 18.9937 7.56618 18.9937 8.0421V17.2336C18.9937 17.2713 18.9898 17.3087 18.9819 17.3456C18.974 17.3827 18.9623 17.4186 18.9468 17.4534C18.9313 17.4883 18.9124 17.5214 18.8899 17.5528C18.8675 17.5841 18.8419 17.6131 18.8133 17.6398C18.7847 17.6665 18.7536 17.6903 18.72 17.7112C18.6864 17.7322 18.6509 17.7499 18.6135 17.7643C18.5761 17.7788 18.5376 17.7897 18.4979 17.797C18.4583 17.8044 18.4182 17.808 18.3778 17.808H12.2186C12.195 17.808 12.1716 17.8068 12.1482 17.8043C12.1209 17.8068 12.093 17.808 12.0646 17.808H2.36385C2.3234 17.808 2.28335 17.8044 2.24369 17.797C2.20402 17.7897 2.16551 17.7788 2.12814 17.7643C2.09078 17.7499 2.05528 17.7322 2.02166 17.7112C1.98803 17.6903 1.95692 17.6665 1.92832 17.6398C1.89973 17.6131 1.87419 17.5841 1.85173 17.5528C1.82926 17.5214 1.81029 17.4883 1.79481 17.4534C1.77933 17.4186 1.76765 17.3827 1.75976 17.3456C1.75187 17.3087 1.74792 17.2713 1.74792 17.2336V2.29741C1.74792 1.82151 1.92832 1.41529 2.28912 1.07878C2.64992 0.742263 3.08544 0.574005 3.59569 0.574005ZM7.90715 16.6591V14.9357C7.90715 14.6184 7.63138 14.3612 7.29122 14.3612C6.95106 14.3612 6.67529 14.6184 6.67529 14.9357V16.6591H2.97976V2.29741C2.97976 2.13878 3.0399 2.00338 3.16016 1.8912C3.28043 1.77903 3.4256 1.72295 3.59569 1.72295H10.9868C11.1569 1.72295 11.302 1.77903 11.4222 1.8912C11.5425 2.00338 11.6027 2.13878 11.6027 2.29741V16.6591H7.90715ZM12.8345 16.6591H17.7619V8.0421C17.7619 7.88346 17.7017 7.74806 17.5814 7.63589C17.4612 7.52371 17.316 7.46763 17.1459 7.46763H12.8345V16.6591Z" fill="#4FD1C5"/>
<path d="M4.29184 15.5055C4.11276 15.5274 3.95408 15.4841 3.81579 15.3758C3.67751 15.2674 3.60445 15.1291 3.59663 14.9608C3.5888 14.7925 3.64874 14.6488 3.77645 14.5297C3.90415 14.4106 4.05822 14.3547 4.23866 14.362C4.4191 14.3693 4.5674 14.4374 4.68357 14.5664C4.79974 14.6954 4.84612 14.8434 4.82269 15.0104C4.80459 15.1395 4.74619 15.2501 4.64749 15.3422C4.54879 15.4342 4.43024 15.4887 4.29184 15.5055ZM4.29184 12.6332C4.11276 12.655 3.95408 12.6118 3.81579 12.5035C3.67751 12.3951 3.60445 12.2567 3.59663 12.0885C3.5888 11.9202 3.64874 11.7765 3.77645 11.6574C3.90415 11.5383 4.05822 11.4824 4.23866 11.4896C4.4191 11.497 4.5674 11.5651 4.68357 11.6941C4.79974 11.8231 4.84612 11.971 4.82269 12.1381C4.80459 12.2672 4.74619 12.3778 4.64749 12.4698C4.54879 12.5618 4.43024 12.6163 4.29184 12.6332ZM4.29184 9.76087C4.11276 9.78272 3.95408 9.73946 3.81579 9.63111C3.67751 9.52276 3.60445 9.38444 3.59663 9.21614C3.5888 9.04786 3.64874 8.90415 3.77645 8.78504C3.90415 8.66593 4.05822 8.61002 4.23866 8.61733C4.4191 8.62463 4.5674 8.69277 4.68357 8.82174C4.79974 8.95072 4.84612 9.09872 4.82269 9.26575C4.80459 9.39483 4.74619 9.50541 4.64749 9.59746C4.54879 9.68951 4.43024 9.74399 4.29184 9.76087ZM4.29184 6.88853C4.11276 6.91037 3.95408 6.86712 3.81579 6.75877C3.67751 6.65042 3.60445 6.5121 3.59663 6.3438C3.5888 6.17552 3.64874 6.03181 3.77645 5.9127C3.90415 5.79359 4.05822 5.73769 4.23866 5.74499C4.4191 5.75229 4.5674 5.82043 4.68357 5.9494C4.79974 6.07838 4.84612 6.22638 4.82269 6.39341C4.80459 6.52249 4.74619 6.63307 4.64749 6.72512C4.54879 6.81718 4.43024 6.87165 4.29184 6.88853ZM4.29184 4.01619C4.11276 4.03803 3.95408 3.99478 3.81579 3.88643C3.67751 3.77808 3.60445 3.63976 3.59663 3.47146C3.5888 3.30317 3.64874 3.15947 3.77645 3.04036C3.90415 2.92125 4.05822 2.86534 4.23866 2.87264C4.4191 2.87994 4.5674 2.94808 4.68357 3.07706C4.79974 3.20604 4.84612 3.35404 4.82269 3.52107C4.80459 3.65015 4.74619 3.76073 4.64749 3.85278C4.54879 3.94483 4.43024 3.99931 4.29184 4.01619ZM7.37145 12.6332C7.19238 12.655 7.03369 12.6118 6.8954 12.5035C6.75712 12.3951 6.68407 12.2567 6.67624 12.0885C6.66841 11.9202 6.72835 11.7765 6.85606 11.6574C6.98377 11.5383 7.13784 11.4824 7.31827 11.4896C7.49871 11.497 7.64701 11.5651 7.76318 11.6941C7.87935 11.8231 7.92572 11.971 7.9023 12.1381C7.8842 12.2672 7.82581 12.3778 7.7271 12.4698C7.62841 12.5618 7.50985 12.6163 7.37145 12.6332ZM7.37145 9.76087C7.19238 9.78272 7.03369 9.73946 6.8954 9.63111C6.75712 9.52276 6.68407 9.38444 6.67624 9.21614C6.66841 9.04786 6.72835 8.90415 6.85606 8.78504C6.98377 8.66593 7.13784 8.61002 7.31827 8.61733C7.49871 8.62463 7.64701 8.69277 7.76318 8.82174C7.87935 8.95072 7.92572 9.09872 7.9023 9.26575C7.8842 9.39483 7.82581 9.50541 7.7271 9.59746C7.62841 9.68951 7.50985 9.74399 7.37145 9.76087ZM7.37145 6.88853C7.19238 6.91037 7.03369 6.86712 6.8954 6.75877C6.75712 6.65042 6.68407 6.5121 6.67624 6.3438C6.66841 6.17552 6.72835 6.03181 6.85606 5.9127C6.98377 5.79359 7.13784 5.73769 7.31827 5.74499C7.49871 5.75229 7.64701 5.82043 7.76318 5.9494C7.87935 6.07838 7.92572 6.22638 7.9023 6.39341C7.8842 6.52249 7.8258 6.63307 7.7271 6.72512C7.62841 6.81718 7.50985 6.87165 7.37145 6.88853ZM7.37145 4.01619C7.19238 4.03803 7.03369 3.99478 6.8954 3.88643C6.75712 3.77808 6.68407 3.63976 6.67624 3.47146C6.66841 3.30317 6.72835 3.15947 6.85606 3.04036C6.98377 2.92125 7.13784 2.86534 7.31827 2.87264C7.49871 2.87994 7.64701 2.94808 7.76318 3.07706C7.87935 3.20604 7.92572 3.35404 7.9023 3.52107C7.8842 3.65015 7.8258 3.76073 7.7271 3.85278C7.62841 3.94483 7.50985 3.99931 7.37145 4.01619ZM10.4511 15.5055C10.272 15.5274 10.1133 15.4841 9.97502 15.3758C9.83673 15.2674 9.76368 15.1291 9.75585 14.9608C9.74802 14.7925 9.80796 14.6488 9.93567 14.5297C10.0634 14.4106 10.2174 14.3547 10.3979 14.362C10.5783 14.3693 10.7266 14.4374 10.8428 14.5664C10.959 14.6954 11.0053 14.8434 10.9819 15.0104C10.9638 15.1395 10.9054 15.2501 10.8067 15.3422C10.708 15.4342 10.5895 15.4886 10.4511 15.5055ZM10.4511 12.6332C10.272 12.655 10.1133 12.6118 9.97502 12.5035C9.83673 12.3951 9.76368 12.2567 9.75585 12.0885C9.74802 11.9202 9.80796 11.7765 9.93567 11.6574C10.0634 11.5383 10.2174 11.4824 10.3979 11.4896C10.5783 11.497 10.7266 11.5651 10.8428 11.6941C10.959 11.8231 11.0053 11.971 10.9819 12.1381C10.9638 12.2672 10.9054 12.3778 10.8067 12.4698C10.708 12.5618 10.5895 12.6163 10.4511 12.6332ZM10.4511 9.76087C10.272 9.78272 10.1133 9.73946 9.97502 9.63111C9.83673 9.52276 9.76368 9.38443 9.75585 9.21614C9.74802 9.04786 9.80796 8.90415 9.93567 8.78504C10.0634 8.66593 10.2174 8.61002 10.3979 8.61733C10.5783 8.62463 10.7266 8.69277 10.8428 8.82174C10.959 8.95072 11.0053 9.09872 10.9819 9.26575C10.9638 9.39483 10.9054 9.50541 10.8067 9.59746C10.708 9.68952 10.5895 9.74399 10.4511 9.76087Z" fill="#4FD1C5"/>
<path d="M10.8078 6.72599C11.0476 6.50235 11.0466 6.13884 10.8056 5.91408C10.5647 5.68931 10.1749 5.6884 9.93514 5.91205C9.69536 6.13569 9.69633 6.49919 9.93732 6.72396C10.1783 6.94872 10.568 6.94963 10.8078 6.72599Z" fill="#4FD1C5"/>
<path d="M10.4508 4.01619C10.2717 4.03803 10.113 3.99478 9.97473 3.88643C9.83644 3.77808 9.76339 3.63976 9.75556 3.47146C9.74773 3.30317 9.80767 3.15947 9.93538 3.04036C10.0631 2.92125 10.2172 2.86534 10.3976 2.87264C10.578 2.87994 10.7263 2.94808 10.8425 3.07706C10.9587 3.20604 11.0051 3.35404 10.9816 3.52107C10.9635 3.65015 10.9051 3.76073 10.8064 3.85278C10.7077 3.94483 10.5892 3.99931 10.4508 4.01619ZM15.914 14.3613C15.7439 14.3613 15.5988 14.4174 15.4785 14.5295C15.3582 14.6417 15.2981 14.7771 15.2981 14.9358C15.2981 15.0944 15.3582 15.2298 15.4785 15.3419C15.5988 15.4542 15.7439 15.5102 15.914 15.5102C16.0841 15.5102 16.2293 15.4542 16.3495 15.3419C16.4698 15.2298 16.5299 15.0944 16.5299 14.9358C16.5299 14.7771 16.4698 14.6417 16.3495 14.5296C16.2293 14.4174 16.0841 14.3613 15.914 14.3613ZM15.914 11.489C15.7439 11.489 15.5988 11.545 15.4785 11.6572C15.3582 11.7694 15.2981 11.9048 15.2981 12.0634C15.2981 12.222 15.3582 12.3575 15.4785 12.4696C15.5988 12.5818 15.7439 12.6379 15.914 12.6379C16.0841 12.6379 16.2293 12.5818 16.3495 12.4696C16.4698 12.3575 16.5299 12.222 16.5299 12.0634C16.5299 11.9048 16.4698 11.7694 16.3495 11.6572C16.2293 11.545 16.0841 11.489 15.914 11.489ZM15.914 8.6166C15.7439 8.6166 15.5988 8.67268 15.4785 8.78486C15.3582 8.89703 15.2981 9.03243 15.2981 9.19107C15.2981 9.3497 15.3582 9.4851 15.4785 9.59728C15.5988 9.70945 15.7439 9.76554 15.914 9.76554C16.0841 9.76554 16.2293 9.70945 16.3495 9.59728C16.4698 9.4851 16.5299 9.3497 16.5299 9.19107C16.5299 9.03243 16.4698 8.89703 16.3495 8.78486C16.2293 8.67268 16.0841 8.6166 15.914 8.6166ZM13.4503 14.3613C13.2802 14.3613 13.1351 14.4174 13.0148 14.5295C12.8945 14.6417 12.8344 14.7771 12.8344 14.9358C12.8344 15.0944 12.8945 15.2298 13.0148 15.3419C13.1351 15.4542 13.2802 15.5102 13.4503 15.5102C13.6204 15.5102 13.7656 15.4542 13.8858 15.3419C14.0061 15.2298 14.0662 15.0944 14.0662 14.9358C14.0662 14.7771 14.0061 14.6417 13.8858 14.5296C13.7656 14.4174 13.6204 14.3613 13.4503 14.3613ZM13.4503 11.489C13.2802 11.489 13.1351 11.545 13.0148 11.6572C12.8945 11.7694 12.8344 11.9048 12.8344 12.0634C12.8344 12.222 12.8945 12.3575 13.0148 12.4696C13.1351 12.5818 13.2802 12.6379 13.4503 12.6379C13.6204 12.6379 13.7656 12.5818 13.8858 12.4696C14.0061 12.3575 14.0662 12.222 14.0662 12.0634C14.0662 11.9048 14.0061 11.7694 13.8858 11.6572C13.7656 11.545 13.6204 11.489 13.4503 11.489ZM13.4503 8.6166C13.2802 8.6166 13.1351 8.67268 13.0148 8.78486C12.8945 8.89703 12.8344 9.03243 12.8344 9.19107C12.8344 9.3497 12.8945 9.4851 13.0148 9.59728C13.1351 9.70945 13.2802 9.76554 13.4503 9.76554C13.6204 9.76554 13.7656 9.70945 13.8858 9.59728C14.0061 9.4851 14.0662 9.3497 14.0662 9.19107C14.0662 9.03243 14.0061 8.89703 13.8858 8.78486C13.7656 8.67268 13.6204 8.6166 13.4503 8.6166Z" fill="#4FD1C5"/>
</g>
</svg>
