<svg width="21" height="19" viewBox="0 0 21 19" fill="none" xmlns="http://www.w3.org/2000/svg">
<mask id="mask0_82_1309" style="mask-type:alpha" maskUnits="userSpaceOnUse" x="0" y="0" width="21" height="19">
<path d="M0.761108 0H20.4706V18.383H0.761108V0Z" fill="black"/>
</mask>
<g mask="url(#mask0_82_1309)">
<path fill-rule="evenodd" clip-rule="evenodd" d="M3.84065 7.03699C3.50049 7.03699 3.22473 7.29419 3.22473 7.61146V16.0849C3.22473 16.4021 3.345 16.6729 3.58553 16.8973C3.82606 17.1216 4.11641 17.2338 4.45657 17.2338H8.1521C8.19255 17.2338 8.2326 17.2301 8.27227 17.2228C8.31193 17.2154 8.35044 17.2045 8.38781 17.1901C8.42517 17.1756 8.46067 17.1579 8.49429 17.137C8.52792 17.1161 8.55903 17.0922 8.58763 17.0655C8.61622 17.0389 8.64175 17.0099 8.66422 16.9785C8.68669 16.9471 8.70566 16.914 8.72114 16.8792C8.73662 16.8443 8.7483 16.8084 8.75619 16.7714C8.76408 16.7344 8.76803 16.6971 8.76803 16.6593V11.7763C8.76803 11.697 8.79809 11.6293 8.85822 11.5732C8.91836 11.5172 8.99095 11.4891 9.07599 11.4891H12.1556C12.2406 11.4891 12.3132 11.5172 12.3734 11.5732C12.4335 11.6293 12.4636 11.697 12.4636 11.7763V16.6593C12.4636 16.6971 12.4675 16.7344 12.4754 16.7714C12.4833 16.8084 12.495 16.8443 12.5105 16.8792C12.5259 16.914 12.5449 16.9471 12.5674 16.9785C12.5898 17.0099 12.6154 17.0389 12.644 17.0655C12.6726 17.0922 12.7037 17.1161 12.7373 17.137C12.7709 17.1579 12.8064 17.1756 12.8438 17.1901C12.8811 17.2045 12.9196 17.2154 12.9593 17.2228C12.999 17.2301 13.039 17.2338 13.0795 17.2338H16.775C17.1151 17.2338 17.4055 17.1216 17.6461 16.8973C17.8866 16.6729 18.0068 16.4021 18.0068 16.0849V7.61146C18.0068 7.29419 17.7311 7.03699 17.3909 7.03699C17.0507 7.03699 16.775 7.29419 16.775 7.61146V16.0849H13.6954V11.7763C13.6954 11.3798 13.545 11.0412 13.2444 10.7608C12.9437 10.4804 12.5808 10.3402 12.1556 10.3402H9.07599C8.65078 10.3402 8.28785 10.4804 7.98718 10.7608C7.68652 11.0412 7.53618 11.3798 7.53618 11.7763V16.0849H4.45657V7.61146C4.45657 7.29419 4.18081 7.03699 3.84065 7.03699Z" fill="#4FD1C5"/>
<path fill-rule="evenodd" clip-rule="evenodd" d="M18.8128 9.60693L10.628 2.2993L10.6159 2.29893L10.6036 2.29929L2.41878 9.60693C2.17306 9.8263 1.78317 9.81833 1.54795 9.58916C1.31273 9.35997 1.32124 8.99632 1.56697 8.77694L9.76236 1.45987C9.98029 1.2527 10.2656 1.14941 10.6182 1.15C10.9698 1.15058 11.2536 1.25404 11.4698 1.46038L13.6954 3.44747V2.2983C13.6954 2.26058 13.6994 2.22322 13.7073 2.18623C13.7151 2.14923 13.7268 2.11331 13.7423 2.07846C13.7578 2.04361 13.7768 2.01051 13.7992 1.97915C13.8217 1.94778 13.8472 1.91876 13.8759 1.89209C13.9044 1.86542 13.9355 1.84161 13.9691 1.82065C14.0028 1.79969 14.0383 1.782 14.0757 1.76756C14.113 1.75313 14.1515 1.74223 14.1912 1.73487C14.2308 1.72751 14.2709 1.72383 14.3114 1.72383H16.1591C16.1996 1.72383 16.2396 1.72751 16.2793 1.73487C16.319 1.74223 16.3575 1.75313 16.3948 1.76756C16.4322 1.782 16.4677 1.79969 16.5013 1.82065C16.5349 1.84161 16.566 1.86542 16.5946 1.89209C16.6233 1.91876 16.6488 1.94778 16.6712 1.97915C16.6937 2.01051 16.7127 2.04361 16.7282 2.07846C16.7436 2.11331 16.7553 2.14923 16.7632 2.18623C16.7711 2.22322 16.775 2.26058 16.775 2.2983V6.19703L19.6646 8.77694C19.9103 8.99632 19.9189 9.35997 19.6837 9.58916C19.4485 9.81833 19.0586 9.8263 18.8128 9.60693ZM15.5432 2.87277V5.09721L14.9273 4.5473V2.87277H15.5432Z" fill="#4FD1C5"/>
</g>
</svg>
