<svg width="22" height="22" viewBox="0 0 22 22" fill="none" xmlns="http://www.w3.org/2000/svg">
<path d="M21.75 5.00007C21.75 4.17164 21.4571 3.46454 20.8713 2.87875C20.2855 2.29296 19.5784 2.00007 18.75 2.00007H18V1.27117C18 0.867571 17.6897 0.521165 17.2861 0.501008C17.0722 0.490701 16.8877 0.559423 16.7326 0.707175C16.5776 0.854926 16.5 1.03589 16.5 1.25007V2.00007H6V1.27117C6 0.867571 5.68969 0.521165 5.28609 0.501008C5.07216 0.490701 4.88767 0.559423 4.73261 0.707174C4.57756 0.854926 4.50002 1.03589 4.5 1.25007V2.00007H3.75C2.92157 2.00007 2.21447 2.29296 1.62868 2.87875C1.04289 3.46454 0.75 4.17164 0.75 5.00007V5.56257C0.75 5.61435 0.768306 5.65854 0.804917 5.69515C0.841529 5.73176 0.885723 5.75007 0.9375 5.75007H21.5625C21.6143 5.75007 21.6585 5.73176 21.6951 5.69515C21.7317 5.65854 21.75 5.61435 21.75 5.56257V5.00007ZM0.75 18.5001C0.75 19.3285 1.04289 20.0356 1.62868 20.6214C2.21447 21.2072 2.92157 21.5001 3.75 21.5001H18.75C19.5784 21.5001 20.2855 21.2072 20.8713 20.6214C21.4571 20.0356 21.75 19.3285 21.75 18.5001V7.3907C21.75 7.35186 21.7363 7.31872 21.7088 7.29126C21.6814 7.2638 21.6482 7.25007 21.6094 7.25007H0.890625C0.851792 7.25007 0.818647 7.2638 0.791188 7.29126C0.763729 7.31872 0.75 7.35186 0.75 7.3907V18.5001ZM16.875 8.75007C17.1857 8.75007 17.4508 8.85991 17.6705 9.07957C17.8902 9.29924 18 9.56441 18 9.87507C18 10.1857 17.8902 10.4509 17.6705 10.6706C17.4508 10.8902 17.1857 11.0001 16.875 11.0001C16.5643 11.0001 16.2992 10.8902 16.0795 10.6706C15.8598 10.4509 15.75 10.1857 15.75 9.87507C15.75 9.56441 15.8598 9.29925 16.0795 9.07958C16.2992 8.85991 16.5643 8.75007 16.875 8.75007ZM16.875 12.5001C17.1857 12.5001 17.4508 12.6099 17.6705 12.8296C17.8902 13.0492 18 13.3144 18 13.6251C18 13.9357 17.8902 14.2009 17.6705 14.4206C17.4508 14.6402 17.1857 14.7501 16.875 14.7501C16.5643 14.7501 16.2992 14.6402 16.0795 14.4206C15.8598 14.2009 15.75 13.9357 15.75 13.6251C15.75 13.3144 15.8598 13.0492 16.0795 12.8296C16.2992 12.6099 16.5643 12.5001 16.875 12.5001ZM13.125 8.75007C13.4357 8.75007 13.7008 8.85991 13.9205 9.07957C14.1402 9.29924 14.25 9.56441 14.25 9.87507C14.25 10.1857 14.1402 10.4509 13.9205 10.6706C13.7008 10.8902 13.4357 11.0001 13.125 11.0001C12.8143 11.0001 12.5492 10.8902 12.3295 10.6706C12.1098 10.4509 12 10.1857 12 9.87507C12 9.56441 12.1098 9.29925 12.3295 9.07958C12.5492 8.85991 12.8143 8.75007 13.125 8.75007ZM13.125 12.5001C13.4357 12.5001 13.7008 12.6099 13.9205 12.8296C14.1402 13.0492 14.25 13.3144 14.25 13.6251C14.25 13.9357 14.1402 14.2009 13.9205 14.4206C13.7008 14.6402 13.4357 14.7501 13.125 14.7501C12.8143 14.7501 12.5492 14.6402 12.3295 14.4206C12.1098 14.2009 12 13.9357 12 13.6251C12 13.3144 12.1098 13.0492 12.3295 12.8296C12.5492 12.6099 12.8143 12.5001 13.125 12.5001ZM13.125 16.2501C13.4357 16.2501 13.7008 16.3599 13.9205 16.5796C14.1402 16.7992 14.25 17.0644 14.25 17.3751C14.25 17.6857 14.1402 17.9509 13.9205 18.1706C13.7008 18.3902 13.4357 18.5001 13.125 18.5001C12.8143 18.5001 12.5492 18.3902 12.3295 18.1706C12.1098 17.9509 12 17.6857 12 17.3751C12 17.0644 12.1098 16.7992 12.3295 16.5796C12.5492 16.3599 12.8143 16.2501 13.125 16.2501ZM9.375 12.5001C9.68566 12.5001 9.95082 12.6099 10.1705 12.8296C10.3902 13.0492 10.5 13.3144 10.5 13.6251C10.5 13.9357 10.3902 14.2009 10.1705 14.4206C9.95082 14.6402 9.68566 14.7501 9.375 14.7501C9.06434 14.7501 8.79917 14.6402 8.5795 14.4206C8.35983 14.2009 8.25 13.9357 8.25 13.6251C8.25 13.3144 8.35984 13.0492 8.5795 12.8296C8.79918 12.6099 9.06434 12.5001 9.375 12.5001ZM9.375 16.2501C9.68566 16.2501 9.95082 16.3599 10.1705 16.5796C10.3902 16.7992 10.5 17.0644 10.5 17.3751C10.5 17.6857 10.3902 17.9509 10.1705 18.1706C9.95082 18.3902 9.68566 18.5001 9.375 18.5001C9.06434 18.5001 8.79917 18.3902 8.5795 18.1706C8.35983 17.9509 8.25 17.6857 8.25 17.3751C8.25 17.0644 8.35984 16.7992 8.5795 16.5796C8.79918 16.3599 9.06434 16.2501 9.375 16.2501ZM5.625 12.5001C5.93566 12.5001 6.20083 12.6099 6.4205 12.8296C6.64016 13.0492 6.75 13.3144 6.75 13.6251C6.75 13.9357 6.64016 14.2009 6.4205 14.4206C6.20083 14.6402 5.93566 14.7501 5.625 14.7501C5.31434 14.7501 5.04917 14.6402 4.8295 14.4206C4.60983 14.2009 4.5 13.9357 4.5 13.6251C4.5 13.3144 4.60984 13.0492 4.8295 12.8296C5.04918 12.6099 5.31434 12.5001 5.625 12.5001ZM5.625 16.2501C5.93566 16.2501 6.20083 16.3599 6.4205 16.5796C6.64016 16.7992 6.75 17.0644 6.75 17.3751C6.75 17.6857 6.64016 17.9509 6.4205 18.1706C6.20083 18.3902 5.93566 18.5001 5.625 18.5001C5.31434 18.5001 5.04917 18.3902 4.8295 18.1706C4.60983 17.9509 4.5 17.6857 4.5 17.3751C4.5 17.0644 4.60984 16.7992 4.8295 16.5796C5.04918 16.3599 5.31434 16.2501 5.625 16.2501Z" fill="#016a80"/>
</svg>
