<svg width="16" height="14" viewBox="0 0 16 14" fill="none" xmlns="http://www.w3.org/2000/svg">
<path d="M8.17377 2.16535C8.12544 2.11912 8.06783 2.09601 8.00095 2.09601C7.93407 2.09601 7.87647 2.11912 7.82814 2.16535L2.07501 7.66129C2.05033 7.68491 2.03128 7.71243 2.01787 7.74385C2.00447 7.77528 1.99779 7.80807 1.99782 7.84223L1.99689 13.0003C1.99689 13.2765 2.09452 13.5122 2.28978 13.7075C2.48504 13.9027 2.72075 14.0003 2.99689 14.0003H6.00002C6.13809 14.0003 6.25594 13.9515 6.35357 13.8539C6.4512 13.7563 6.50002 13.6384 6.50002 13.5003V9.25036C6.50002 9.18132 6.52442 9.12239 6.57324 9.07358C6.62205 9.02476 6.68098 9.00036 6.75002 9.00036H9.25002C9.31905 9.00036 9.37798 9.02476 9.42679 9.07358C9.47561 9.12239 9.50002 9.18132 9.50002 9.25036V13.5003C9.50002 13.6384 9.54883 13.7563 9.64646 13.8539C9.74409 13.9515 9.86194 14.0003 10 14.0003H13.0019C13.278 14.0003 13.5137 13.9027 13.709 13.7075C13.9043 13.5122 14.0019 13.2765 14.0019 13.0003V7.84223C14.0019 7.80807 13.9953 7.77527 13.9819 7.74385C13.9684 7.71243 13.9494 7.68491 13.9247 7.66129L8.17377 2.16535Z" fill="#666666"/>
<path d="M15.3409 6.62969L13.0034 4.39344V1C13.0034 0.861929 12.9546 0.744078 12.857 0.646446C12.7594 0.548815 12.6415 0.5 12.5034 0.5H11.0034C10.8654 0.5 10.7475 0.548816 10.6499 0.646447C10.5523 0.744078 10.5034 0.861929 10.5034 1V2L8.69345 0.269375C8.52407 0.098125 8.2722 0 8.00001 0C7.72876 0 7.47751 0.098125 7.30814 0.269688L0.661262 6.62906C0.466887 6.81656 0.442512 7.125 0.619387 7.32812C0.713111 7.43632 0.83147 7.49368 0.974462 7.50022C1.11745 7.50676 1.24055 7.46044 1.34376 7.36125L7.82814 1.165C7.87647 1.11877 7.93407 1.09565 8.00095 1.09565C8.06783 1.09565 8.12543 1.11877 8.17376 1.165L14.6588 7.36125C14.7582 7.45662 14.8768 7.50296 15.0146 7.50028C15.1523 7.49759 15.269 7.44667 15.3647 7.3475C15.5566 7.14875 15.5406 6.82062 15.3409 6.62969Z" fill="#666666"/>
</svg>
