<svg width="20" height="20" viewBox="0 0 20 20" fill="none" xmlns="http://www.w3.org/2000/svg">
<mask id="mask0_82_781" style="mask-type:luminance" maskUnits="userSpaceOnUse" x="0" y="0" width="20" height="20">
<path d="M0 0H20V20H0V0Z" fill="white"/>
</mask>
<g mask="url(#mask0_82_781)">
<path d="M18.4375 6.56299H1.5625C1.30362 6.56299 1.08265 6.47146 0.899587 6.2884C0.716529 6.10534 0.625 5.88437 0.625 5.62549C0.625 5.3666 0.716529 5.14563 0.899587 4.96258C1.08265 4.77952 1.30362 4.68799 1.5625 4.68799H18.4375C18.6964 4.68799 18.9174 4.77952 19.1004 4.96258C19.2835 5.14563 19.375 5.3666 19.375 5.62549C19.375 5.88437 19.2835 6.10534 19.1004 6.2884C18.9174 6.47146 18.6964 6.56299 18.4375 6.56299ZM15.3125 10.938H4.6875C4.42862 10.938 4.20765 10.8465 4.02459 10.6634C3.84153 10.4803 3.75 10.2594 3.75 10.0005C3.75 9.74161 3.84153 9.52064 4.02459 9.33758C4.20765 9.15452 4.42862 9.06299 4.6875 9.06299H15.3125C15.5714 9.06299 15.7924 9.15452 15.9754 9.33758C16.1585 9.52064 16.25 9.74161 16.25 10.0005C16.25 10.2594 16.1585 10.4803 15.9754 10.6634C15.7924 10.8465 15.5714 10.938 15.3125 10.938ZM11.5625 15.313H8.4375C8.17862 15.313 7.95765 15.2215 7.77459 15.0384C7.59153 14.8554 7.5 14.6344 7.5 14.3755C7.5 14.1166 7.59153 13.8956 7.77459 13.7126C7.95765 13.5295 8.17862 13.438 8.4375 13.438H11.5625C11.8214 13.438 12.0424 13.5295 12.2254 13.7126C12.4085 13.8956 12.5 14.1166 12.5 14.3755C12.5 14.6344 12.4085 14.8554 12.2254 15.0384C12.0424 15.2215 11.8214 15.313 11.5625 15.313Z" fill="#9CA3AF"/>
</g>
</svg>
