<svg width="20" height="20" viewBox="0 0 20 20" fill="none" xmlns="http://www.w3.org/2000/svg">
<path d="M17.7496 0H7.74954C6.64654 0 5.74954 0.897 5.74954 2V7.586L1.04255 12.293C0.899593 12.436 0.808398 12.6067 0.768963 12.805C0.729528 13.0033 0.748497 13.1958 0.825869 13.3827C0.903241 13.5695 1.02598 13.719 1.19409 13.8314C1.3622 13.9438 1.54735 14 1.74954 14V19C1.74954 19.2761 1.84717 19.5118 2.04244 19.7071C2.2377 19.9024 2.4734 20 2.74954 20H18.7496C19.0257 20 19.2614 19.9024 19.4567 19.7071C19.6519 19.5118 19.7496 19.2761 19.7496 19V2C19.7496 0.897 18.8526 0 17.7496 0ZM9.74954 18H3.74954V12.414L6.74954 9.414L9.74954 12.414V18ZM17.7496 18H11.7496V14C11.952 14.0004 12.1374 13.9445 12.3059 13.8322C12.4743 13.72 12.5973 13.5703 12.6747 13.3833C12.7522 13.1962 12.7711 13.0035 12.7313 12.805C12.6916 12.6065 12.6 12.4358 12.4566 12.293L7.74954 7.586V2H17.7496V18Z" fill="#016a80"/>
<path d="M9.75 4H11.75V6H9.75V4ZM13.75 4H15.75V6H13.75V4ZM13.75 8.031H15.75V10H13.75V8.031ZM13.75 12H15.75V14H13.75V12ZM5.75 13H7.75V15H5.75V13Z" fill="#016a80"/>
</svg>
