<svg width="23" height="22" viewBox="0 0 23 22" fill="none" xmlns="http://www.w3.org/2000/svg">
<path d="M12.0106 3.74702C11.9381 3.67768 11.8517 3.64301 11.7514 3.64301C11.6511 3.64301 11.5647 3.67768 11.4922 3.74702L2.86249 11.9909C2.82546 12.0264 2.79689 12.0676 2.77678 12.1148C2.75667 12.1619 2.74665 12.2111 2.74671 12.2623L2.7453 19.9995C2.7453 20.4137 2.89175 20.7673 3.18464 21.0602C3.47753 21.3531 3.83109 21.4995 4.2453 21.4995H8.74999C8.95709 21.4995 9.13387 21.4263 9.28032 21.2798C9.42676 21.1334 9.49999 20.9566 9.49999 20.7495V14.3745C9.49999 14.271 9.5366 14.1826 9.60982 14.1094C9.68305 14.0361 9.77143 13.9995 9.87499 13.9995H13.625C13.7285 13.9995 13.8169 14.0361 13.8902 14.1094C13.9634 14.1826 14 14.271 14 14.3745V20.7495C14 20.9566 14.0732 21.1334 14.2197 21.2798C14.3661 21.4263 14.5429 21.4995 14.75 21.4995H19.2528C19.667 21.4995 20.0206 21.3531 20.3135 21.0602C20.6064 20.7673 20.7528 20.4137 20.7528 19.9995V12.2623C20.7529 12.2111 20.7428 12.1619 20.7227 12.1148C20.7026 12.0676 20.674 12.0264 20.637 11.9909L12.0106 3.74702Z" fill="#016a80"/>
<path d="M22.7614 10.4445L19.2552 7.09016V2C19.2552 1.79289 19.1819 1.61612 19.0355 1.46967C18.8891 1.32322 18.7123 1.25 18.5052 1.25H16.2552C16.0481 1.25 15.8713 1.32322 15.7248 1.46967C15.5784 1.61612 15.5052 1.79289 15.5052 2V3.5L12.7902 0.904062C12.5361 0.647187 12.1583 0.5 11.75 0.5C11.3431 0.5 10.9663 0.647187 10.7122 0.904531L0.741893 10.4436C0.45033 10.7248 0.413768 11.1875 0.67908 11.4922C0.819667 11.6545 0.997204 11.7405 1.21169 11.7503C1.42618 11.7601 1.61083 11.6907 1.76564 11.5419L11.4922 2.2475C11.5647 2.17815 11.6511 2.14348 11.7514 2.14348C11.8517 2.14348 11.9382 2.17815 12.0106 2.2475L21.7381 11.5419C21.8873 11.6849 22.0652 11.7544 22.2719 11.7504C22.4785 11.7464 22.6536 11.67 22.797 11.5212C23.0849 11.2231 23.061 10.7309 22.7614 10.4445Z" fill="#016a80"/>
</svg>
