<svg width="13" height="12" viewBox="0 0 13 12" fill="none" xmlns="http://www.w3.org/2000/svg">
<path d="M11.1357 1.33333V10.6667H1.80232V1.33333H11.1357ZM11.1357 0H1.80232C1.06899 0 0.468994 0.6 0.468994 1.33333V10.6667C0.468994 11.4 1.06899 12 1.80232 12H11.1357C11.869 12 12.469 11.4 12.469 10.6667V1.33333C12.469 0.6 11.869 0 11.1357 0ZM5.13566 10V7.33333H5.80232V5.66667C5.80232 4.93333 5.20232 4.33333 4.46899 4.33333H3.80232C3.06899 4.33333 2.46899 4.93333 2.46899 5.66667V7.33333H3.13566V10H5.13566ZM4.13566 3.66667C4.36578 3.66667 4.56219 3.58531 4.72491 3.42259C4.88763 3.25987 4.96899 3.06345 4.96899 2.83333C4.96899 2.60321 4.88763 2.4068 4.72491 2.24408C4.56219 2.08136 4.36578 2 4.13566 2C3.90554 2 3.70912 2.08136 3.5464 2.24408C3.38368 2.4068 3.30232 2.60321 3.30232 2.83333C3.30232 3.06345 3.38368 3.25987 3.5464 3.42259C3.70912 3.58531 3.90554 3.66667 4.13566 3.66667ZM10.469 5.33333L8.80232 2.66667L7.13566 5.33333H10.469ZM7.13566 6.66667L8.80232 9.33333L10.469 6.66667H7.13566Z" fill="#666666"/>
</svg>
