<svg width="12" height="12" viewBox="0 0 12 12" fill="none" xmlns="http://www.w3.org/2000/svg">
<mask id="mask0_82_1231" style="mask-type:alpha" maskUnits="userSpaceOnUse" x="0" y="0" width="12" height="12">
<path d="M0 0H12V12H0V0Z" fill="black"/>
</mask>
<g mask="url(#mask0_82_1231)">
<path d="M6 1.5C5.59088 1.5 5.19977 1.57512 4.82666 1.72536C4.46725 1.87009 4.14912 2.07416 3.87227 2.3376C3.59675 2.59976 3.38364 2.90023 3.23296 3.23902C3.07765 3.58819 3 3.95383 3 4.33594C3 5.15226 3.39378 6.27149 4.18133 7.69362C4.68746 8.60759 5.29455 9.54282 6.00258 10.4993C6.71183 9.54156 7.31257 8.60821 7.81868 7.6944C8.60623 6.27245 9 5.15296 9 4.33594C9 3.95383 8.92235 3.58819 8.76704 3.23902C8.61636 2.90023 8.40326 2.59976 8.12773 2.3376C7.85088 2.07416 7.53275 1.87009 7.17334 1.72536C6.80023 1.57512 6.40912 1.5 6 1.5ZM6 0.75C6.50601 0.75 6.9905 0.843216 7.45349 1.02965C7.90155 1.21007 8.29863 1.46494 8.64473 1.79426C8.99212 2.12481 9.26131 2.50479 9.45232 2.93422C9.65077 3.38041 9.75 3.84765 9.75 4.33594C9.75 5.28217 9.32492 6.52278 8.47477 8.05777C7.95269 9.00041 7.32844 9.96219 6.60202 10.9431C6.45333 11.1474 6.25265 11.2495 6 11.2495C5.74735 11.2495 5.54727 11.1482 5.39977 10.9455C4.67215 9.96258 4.0473 8.99973 3.52522 8.05696C2.67507 6.5218 2.25 5.28146 2.25 4.33594C2.25 3.84765 2.34923 3.38041 2.54768 2.93422C2.73869 2.50479 3.00788 2.12481 3.35527 1.79426C3.70137 1.46494 4.09845 1.21007 4.54651 1.02965C5.0095 0.843216 5.49399 0.75 6 0.75Z" fill="#9CA3AF"/>
<path d="M6 5.625C6.62132 5.625 7.125 5.12132 7.125 4.5C7.125 3.87868 6.62132 3.375 6 3.375C5.37868 3.375 4.875 3.87868 4.875 4.5C4.875 5.12132 5.37868 5.625 6 5.625Z" stroke="#9CA3AF" stroke-width="0.75"/>
</g>
</svg>
