<svg width="14" height="18" viewBox="0 0 14 18" fill="none" xmlns="http://www.w3.org/2000/svg">
<path d="M7 7.75C7.69036 7.75 8.25 7.19036 8.25 6.5C8.25 5.80964 7.69036 5.25 7 5.25C6.30964 5.25 5.75 5.80964 5.75 6.5C5.75 7.19036 6.30964 7.75 7 7.75Z" fill="#016a80"/>
<path d="M7 0.25C3.55391 0.25 0.75 2.93164 0.75 6.22656C0.75 7.7957 1.46523 9.88242 2.87578 12.4289C4.00859 14.4734 5.31914 16.3223 6.00078 17.2422C6.24854 17.5803 6.58201 17.7493 7.00117 17.7493C7.42034 17.7493 7.7538 17.5803 8.00156 17.2422C8.68203 16.3223 9.99375 14.4734 11.1266 12.4289C12.5348 9.8832 13.25 7.79648 13.25 6.22656C13.25 2.93164 10.4461 0.25 7 0.25ZM7 9C6.30964 9 5.72039 8.75592 5.23223 8.26777C4.74408 7.77961 4.5 7.19036 4.5 6.5C4.5 5.80964 4.74408 5.22039 5.23223 4.73223C5.72039 4.24408 6.30964 4 7 4C7.69036 4 8.27961 4.24408 8.76777 4.73223C9.25592 5.22039 9.5 5.80964 9.5 6.5C9.49925 7.19004 9.2549 7.77903 8.76697 8.26697C8.27903 8.7549 7.69004 8.99925 7 9Z" fill="#016a80"/>
</svg>
