<svg width="20" height="19" viewBox="0 0 20 19" fill="none" xmlns="http://www.w3.org/2000/svg">
<mask id="mask0_82_1321" style="mask-type:alpha" maskUnits="userSpaceOnUse" x="0" y="0" width="20" height="19">
<path d="M0.139038 0H19.8485V18.383H0.139038V0Z" fill="black"/>
</mask>
<g mask="url(#mask0_82_1321)">
<path d="M15.376 3.44699H4.61206C3.16231 3.44699 1.98706 4.62224 1.98706 6.07199V12.3114C1.98706 13.7611 3.16231 14.9364 4.61206 14.9364H15.376C16.8258 14.9364 18.001 13.7611 18.001 12.3114V6.07199C18.001 4.62224 16.8258 3.44699 15.376 3.44699Z" stroke="#4FD1C5" stroke-width="1.5" stroke-linejoin="round"/>
<path fill-rule="evenodd" clip-rule="evenodd" d="M18.0011 5.81601H1.98706V7.97027H18.0011V5.81601ZM3.91182 10.7708V11.4889C3.91182 11.5242 3.91367 11.5594 3.91738 11.5945C3.92108 11.6296 3.92662 11.6644 3.93401 11.699C3.94139 11.7336 3.95056 11.7678 3.96154 11.8015C3.97252 11.8353 3.98525 11.8685 3.99972 11.9011C4.0142 11.9337 4.03035 11.9655 4.04818 11.9966C4.06601 12.0277 4.08543 12.058 4.10645 12.0873C4.12746 12.1166 4.14996 12.1449 4.17395 12.1722C4.19795 12.1995 4.22332 12.2256 4.25006 12.2505C4.27681 12.2755 4.3048 12.2991 4.33403 12.3215C4.36327 12.3439 4.39362 12.3649 4.42507 12.3845C4.45651 12.4041 4.48892 12.4222 4.52228 12.4388C4.55563 12.4554 4.58978 12.4705 4.62472 12.484C4.65967 12.4975 4.69524 12.5094 4.73143 12.5196C4.76763 12.5299 4.80427 12.5384 4.84136 12.5453C4.87846 12.5522 4.91583 12.5574 4.95347 12.5608C4.99112 12.5643 5.02885 12.566 5.06667 12.566H6.91443C6.95226 12.566 6.98999 12.5643 7.02763 12.5608C7.06527 12.5574 7.10264 12.5522 7.13974 12.5453C7.17683 12.5384 7.21347 12.5299 7.24967 12.5196C7.28586 12.5094 7.32143 12.4975 7.35638 12.484C7.39132 12.4705 7.42547 12.4554 7.45883 12.4388C7.49219 12.4222 7.52459 12.4041 7.55604 12.3845C7.58748 12.3649 7.61783 12.3439 7.64707 12.3215C7.6763 12.2991 7.70429 12.2755 7.73104 12.2505C7.75778 12.2256 7.78315 12.1995 7.80715 12.1722C7.83114 12.1449 7.85364 12.1166 7.87466 12.0873C7.89567 12.058 7.91509 12.0277 7.93292 11.9966C7.95075 11.9655 7.9669 11.9337 7.98137 11.9011C7.99585 11.8685 8.00858 11.8353 8.01956 11.8015C8.03054 11.7678 8.03972 11.7336 8.0471 11.699C8.05448 11.6644 8.06002 11.6296 8.06373 11.5945C8.06743 11.5594 8.06929 11.5242 8.06929 11.4889V10.7708C8.06929 10.7355 8.06743 10.7003 8.06373 10.6652C8.06002 10.6301 8.05448 10.5953 8.0471 10.5607C8.03972 10.5261 8.03054 10.4919 8.01956 10.4581C8.00858 10.4244 7.99585 10.3912 7.98137 10.3586C7.9669 10.326 7.95075 10.2942 7.93292 10.263C7.91509 10.2319 7.89567 10.2017 7.87466 10.1724C7.85364 10.143 7.83114 10.1147 7.80715 10.0875C7.78315 10.0602 7.75778 10.0341 7.73104 10.0091C7.70429 9.98421 7.6763 9.96054 7.64707 9.93816C7.61783 9.91579 7.58748 9.8948 7.55604 9.8752C7.52459 9.8556 7.49219 9.83748 7.45883 9.82086C7.42547 9.80423 7.39132 9.78916 7.35638 9.77566C7.32143 9.76216 7.28586 9.75029 7.24967 9.74005C7.21347 9.72981 7.17683 9.72125 7.13974 9.71437C7.10264 9.70748 7.06527 9.70231 7.02763 9.69886C6.98999 9.6954 6.95226 9.69367 6.91443 9.69367H5.06667C5.02885 9.69367 4.99112 9.6954 4.95347 9.69886C4.91583 9.70231 4.87846 9.70748 4.84136 9.71437C4.80427 9.72125 4.76763 9.72981 4.73143 9.74005C4.69524 9.75029 4.65967 9.76216 4.62472 9.77566C4.58978 9.78916 4.55563 9.80423 4.52228 9.82086C4.48892 9.83748 4.45651 9.8556 4.42507 9.8752C4.39362 9.8948 4.36327 9.91579 4.33403 9.93816C4.3048 9.96054 4.27681 9.98421 4.25006 10.0091C4.22332 10.0341 4.19795 10.0602 4.17395 10.0875C4.14996 10.1147 4.12746 10.143 4.10645 10.1724C4.08543 10.2017 4.06601 10.2319 4.04818 10.263C4.03035 10.2942 4.0142 10.326 3.99972 10.3586C3.98525 10.3912 3.97252 10.4244 3.96154 10.4581C3.95056 10.4919 3.94139 10.5261 3.93401 10.5607C3.92662 10.5953 3.92108 10.6301 3.91738 10.6652C3.91367 10.7003 3.91182 10.7355 3.91182 10.7708Z" fill="#4FD1C5"/>
</g>
</svg>
