<svg width="22" height="18" viewBox="0 0 22 18" fill="none" xmlns="http://www.w3.org/2000/svg">
<path d="M19.5 7.81406C19.2636 7.71028 19.019 7.63194 18.7663 7.57903C18.5136 7.52612 18.2582 7.49978 18 7.5H4.5C4.24184 7.49975 3.98641 7.52604 3.73371 7.57887C3.48101 7.6317 3.23644 7.70994 3 7.81359C2.31716 8.11221 1.77161 8.57328 1.36336 9.1968C0.955104 9.82032 0.750652 10.5047 0.75 11.25V16.5C0.75 16.7071 0.823223 16.8839 0.96967 17.0303C1.11612 17.1768 1.29289 17.25 1.5 17.25C1.70711 17.25 1.88388 17.1768 2.03033 17.0303C2.17678 16.8839 2.25 16.7071 2.25 16.5V16.125C2.25126 16.022 2.28832 15.934 2.36118 15.8612C2.43403 15.7883 2.52197 15.7513 2.625 15.75H19.875C19.978 15.7513 20.066 15.7883 20.1388 15.8612C20.2117 15.934 20.2487 16.022 20.25 16.125V16.5C20.25 16.7071 20.3232 16.8839 20.4697 17.0303C20.6161 17.1768 20.7929 17.25 21 17.25C21.2071 17.25 21.3839 17.1768 21.5303 17.0303C21.6768 16.8839 21.75 16.7071 21.75 16.5V11.25C21.7493 10.5048 21.5448 9.82049 21.1365 9.19707C20.7283 8.57365 20.1828 8.11264 19.5 7.81406ZM16.875 0.75H5.625C4.90013 0.75 4.28141 1.00628 3.76884 1.51885C3.25628 2.03141 3 2.65013 3 3.375V6.75C3.00005 6.81237 3.025 6.86229 3.07486 6.89976C3.12472 6.93723 3.17961 6.94731 3.23953 6.93C3.44425 6.87012 3.65218 6.82511 3.86333 6.79496C4.07448 6.7648 4.28671 6.74982 4.5 6.75H4.69828C4.7462 6.7503 4.78809 6.73455 4.82393 6.70274C4.85977 6.67093 4.88039 6.63121 4.88578 6.58359C4.92813 6.20422 5.09149 5.88721 5.37586 5.63256C5.66023 5.37791 5.99327 5.25039 6.375 5.25H9C9.38199 5.25003 9.71534 5.37739 10 5.63209C10.2847 5.88679 10.4482 6.20396 10.4906 6.58359C10.496 6.63121 10.5166 6.67093 10.5525 6.70274C10.5883 6.73455 10.6302 6.7503 10.6781 6.75H11.8247C11.8726 6.7503 11.9145 6.73455 11.9503 6.70274C11.9862 6.67093 12.0068 6.63121 12.0122 6.58359C12.0545 6.20449 12.2177 5.88764 12.5017 5.63303C12.7858 5.37842 13.1185 5.25074 13.5 5.25H16.125C16.507 5.25003 16.8403 5.37739 17.125 5.63209C17.4097 5.88679 17.5732 6.20396 17.6156 6.58359C17.621 6.63121 17.6416 6.67093 17.6775 6.70274C17.7133 6.73455 17.7552 6.7503 17.8031 6.75H18C18.2133 6.7499 18.4255 6.76496 18.6367 6.79519C18.8478 6.82542 19.0558 6.87052 19.2605 6.93047C19.3205 6.9478 19.3754 6.93768 19.4253 6.90009C19.4752 6.8625 19.5001 6.81247 19.5 6.75V3.375C19.5 2.65013 19.2437 2.03141 18.7312 1.51885C18.2186 1.00628 17.5999 0.75 16.875 0.75Z" fill="#4ECDC4"/>
</svg>
