<svg width="13" height="12" viewBox="0 0 13 12" fill="none" xmlns="http://www.w3.org/2000/svg">
<path fill-rule="evenodd" clip-rule="evenodd" d="M0.734009 2C0.734009 1.44772 0.929271 0.976311 1.3198 0.585787C1.71032 0.195262 2.18172 0 2.73401 0H4.23401C4.7863 0 5.2577 0.195262 5.64822 0.585787C6.03875 0.976311 6.23401 1.44772 6.23401 2V3.5C6.23401 4.05229 6.03875 4.52369 5.64822 4.91421C5.2577 5.30474 4.7863 5.5 4.23401 5.5H2.73401C2.18172 5.5 1.71032 5.30474 1.3198 4.91421C0.929271 4.52369 0.734009 4.05229 0.734009 3.5V2ZM7.23401 2C7.23401 1.44772 7.42927 0.976311 7.8198 0.585787C8.21032 0.195262 8.68172 0 9.23401 0H10.734C11.2863 0 11.7577 0.195262 12.1482 0.585787C12.5387 0.97631 12.734 1.44771 12.734 2V3.5C12.734 4.05229 12.5387 4.52369 12.1482 4.91421C11.7577 5.30474 11.2863 5.5 10.734 5.5H9.23401C8.68172 5.5 8.21032 5.30474 7.8198 4.91421C7.42927 4.52369 7.23401 4.05229 7.23401 3.5V2ZM1.73401 2V3.5C1.73401 3.77614 1.83164 4.01184 2.0269 4.20711C2.22217 4.40237 2.45787 4.5 2.73401 4.5H4.23401C4.51015 4.5 4.74585 4.40237 4.94112 4.20711C5.13638 4.01184 5.23401 3.77614 5.23401 3.5V2C5.23401 1.72386 5.13638 1.48816 4.94112 1.29289C4.74585 1.09763 4.51015 1 4.23401 1H2.73401C2.45787 1 2.22217 1.09763 2.0269 1.29289C1.83164 1.48816 1.73401 1.72386 1.73401 2ZM8.23401 2V3.5C8.23401 3.77614 8.33164 4.01184 8.5269 4.20711C8.72217 4.40237 8.95787 4.5 9.23401 4.5H10.734C11.0101 4.5 11.2458 4.40237 11.4411 4.20711C11.6364 4.01184 11.734 3.77614 11.734 3.5V2C11.734 1.72386 11.6364 1.48816 11.4411 1.29289C11.2458 1.09763 11.0101 1 10.734 1H9.23401C8.95787 1 8.72217 1.09763 8.5269 1.29289C8.33164 1.48816 8.23401 1.72386 8.23401 2ZM0.734009 8.5C0.734009 7.94771 0.929271 7.47631 1.3198 7.08579C1.71032 6.69526 2.18172 6.5 2.73401 6.5H4.23401C4.7863 6.5 5.2577 6.69526 5.64822 7.08579C6.03875 7.47631 6.23401 7.94771 6.23401 8.5V10C6.23401 10.5523 6.03875 11.0237 5.64822 11.4142C5.2577 11.8047 4.7863 12 4.23401 12H2.73401C2.18172 12 1.71032 11.8047 1.31979 11.4142C0.929271 11.0237 0.734009 10.5523 0.734009 10V8.5ZM7.23401 8.5C7.23401 7.94771 7.42927 7.47631 7.8198 7.08579C8.21032 6.69526 8.68172 6.5 9.23401 6.5H10.734C11.2863 6.5 11.7577 6.69526 12.1482 7.08579C12.5387 7.47631 12.734 7.94771 12.734 8.5V10C12.734 10.5523 12.5387 11.0237 12.1482 11.4142C11.7577 11.8047 11.2863 12 10.734 12H9.23401C8.68172 12 8.21032 11.8047 7.81979 11.4142C7.42927 11.0237 7.23401 10.5523 7.23401 10V8.5ZM1.73401 8.5V10C1.73401 10.2761 1.83164 10.5118 2.0269 10.7071C2.22217 10.9024 2.45787 11 2.73401 11H4.23401C4.51015 11 4.74585 10.9024 4.94112 10.7071C5.13638 10.5118 5.23401 10.2761 5.23401 10V8.5C5.23401 8.22386 5.13638 7.98816 4.94112 7.79289C4.74585 7.59763 4.51015 7.5 4.23401 7.5H2.73401C2.45787 7.5 2.22217 7.59763 2.0269 7.79289C1.83164 7.98816 1.73401 8.22386 1.73401 8.5ZM8.23401 8.5V10C8.23401 10.2761 8.33164 10.5118 8.5269 10.7071C8.72217 10.9024 8.95787 11 9.23401 11H10.734C11.0101 11 11.2458 10.9024 11.4411 10.7071C11.6364 10.5118 11.734 10.2761 11.734 10V8.5C11.734 8.22386 11.6364 7.98816 11.4411 7.79289C11.2458 7.59763 11.0101 7.5 10.734 7.5H9.23401C8.95787 7.5 8.72217 7.59763 8.5269 7.79289C8.33164 7.98816 8.23401 8.22386 8.23401 8.5Z" fill="#666666"/>
</svg>
